<?xml version="1.0" encoding="utf-8"?>
<!-- Generator: Adobe Illustrator 17.0.0, SVG Export Plug-In . SVG Version: 6.00 Build 0)  -->
<!DOCTYPE svg PUBLIC "-//W3C//DTD SVG 1.1//EN" "http://www.w3.org/Graphics/SVG/1.1/DTD/svg11.dtd">
<svg version="1.1" id="Calque_2" xmlns="http://www.w3.org/2000/svg" xmlns:xlink="http://www.w3.org/1999/xlink" x="0px"
     y="0px"
     width="100px" height="100px" viewBox="0 0 100 100" enable-background="new 0 0 100 100" xml:space="preserve">
<g>
	<g>
		<path fill="#1FA5FF" d="M28.015,38.527c-3.728,0-6.76,3.033-6.76,6.76c0,3.728,3.033,6.76,6.76,6.76c3.728,0,6.76-3.033,6.76-6.76
			C34.775,41.56,31.743,38.527,28.015,38.527z M28.015,49.344c-2.236,0-4.056-1.82-4.056-4.056s1.82-4.056,4.056-4.056
			s4.056,1.82,4.056,4.056S30.251,49.344,28.015,49.344z"/>
	</g>
</g>
    <g>
	<g>
		<path fill="#FFFFFF" d="M90.211,38.527v-8.112c0-0.581-0.372-1.099-0.925-1.283l-7.628-2.543
			c-2.873-4.866-6.823-9.497-15.55-11.026c-0.016-0.003-0.032-0.005-0.049-0.008c-16.118-2.228-28.219,1.407-35.988,10.81
			c-5.783,0.084-11.686,1.293-15.158,3.515c-1.798,1.152-2.865,3.157-2.965,5.291l-0.157,3.357c-0.746,0-1.352,0.606-1.352,1.352
			v5.408c0,0.746,0.606,1.352,1.352,1.352h5.408c0.75,0,1.351-0.617,1.352-1.367c0-0.007,0.001-0.013,0.001-0.022
			c0.02-5.21,4.248-9.428,9.463-9.428c5.227,0,9.465,4.237,9.465,9.465c-0.097,0.821,0.55,1.352,1.352,1.352h24.337
			c0.75,0,1.351-0.617,1.352-1.367c0-0.007,0.001-0.013,0.001-0.022c0.02-5.21,4.248-9.428,9.463-9.428
			c5.227,0,9.465,4.237,9.465,9.465c-0.097,0.821,0.55,1.352,1.352,1.352h5.408c0.746,0,1.352-0.606,1.352-1.352v-5.408
			C91.563,39.133,90.957,38.527,90.211,38.527z M53.704,25.682c0,0.373-0.303,0.676-0.676,0.676H35.396
			c-0.625,0-0.909-0.768-0.448-1.189c4.692-4.277,10.658-6.723,18.011-7.373c0.396-0.035,0.745,0.284,0.745,0.681V25.682z
			 M69.948,25.689c-0.004,0.37-0.306,0.669-0.676,0.669H57.085c-0.373,0-0.676-0.303-0.676-0.676V18.3
			c0-0.375,0.299-0.683,0.672-0.683c2.696-0.003,5.549,0.193,8.582,0.613c1.444,0.254,2.731,0.603,3.902,1.032
			c0.269,0.099,0.441,0.36,0.438,0.646L69.948,25.689z M77.005,26.358h-3.676c-0.376,0-0.68-0.307-0.676-0.683l0.035-3.664
			c0.005-0.558,0.642-0.861,1.092-0.531c1.462,1.068,2.677,2.34,3.76,3.785C77.878,25.715,77.567,26.358,77.005,26.358z"/>
	</g>
</g>
    <g>
	<g>
		<path fill="#1FA5FF" d="M73.986,38.527c-3.728,0-6.76,3.033-6.76,6.76c0,3.728,3.033,6.76,6.76,6.76c3.728,0,6.76-3.033,6.76-6.76
			C80.746,41.56,77.713,38.527,73.986,38.527z M73.986,49.344c-2.236,0-4.056-1.82-4.056-4.056s1.82-4.056,4.056-4.056
			c2.236,0,4.056,1.82,4.056,4.056S76.222,49.344,73.986,49.344z"/>
	</g>
</g>
</svg>
