<?xml version="1.0" encoding="utf-8"?>
<!-- Generator: Adobe Illustrator 17.0.0, SVG Export Plug-In . SVG Version: 6.00 Build 0)  -->
<!DOCTYPE svg PUBLIC "-//W3C//DTD SVG 1.1//EN" "http://www.w3.org/Graphics/SVG/1.1/DTD/svg11.dtd">
<svg version="1.1"
     id="svg4693" sodipodi:docname="mainNodeIcon.svg" inkscape:version="0.91 r13725"
     xmlns:dc="http://purl.org/dc/elements/1.1/" xmlns:sodipodi="http://sodipodi.sourceforge.net/DTD/sodipodi-0.dtd"
     xmlns:cc="http://creativecommons.org/ns#" xmlns:svg="http://www.w3.org/2000/svg"
     xmlns:rdf="http://www.w3.org/1999/02/22-rdf-syntax-ns#"
     xmlns:inkscape="http://www.inkscape.org/namespaces/inkscape"
     xmlns="http://www.w3.org/2000/svg" xmlns:xlink="http://www.w3.org/1999/xlink" x="0px" y="0px" width="100px"
     height="100px"
     viewBox="0 0 100 100" enable-background="new 0 0 100 100" xml:space="preserve">
<sodipodi:namedview inkscape:window-x="-8" inkscape:current-layer="layer1" inkscape:window-width="1920"
                    inkscape:pageopacity="0" inkscape:pageshadow="2" inkscape:window-y="-8"
                    inkscape:window-height="1138" inkscape:window-maximized="1" inkscape:document-units="px"
                    showgrid="false" inkscape:cy="29.5" inkscape:zoom="2" pagecolor="#000000" id="base"
                    borderopacity="1.0" bordercolor="#666666" units="px" inkscape:cx="43.428571">
	</sodipodi:namedview>
    <g>
	<circle fill="#FFFFFF" cx="34.28" cy="19.639" r="10.452"/>
        <circle fill="#FFFFFF" cx="65.636" cy="19.639" r="10.452"/>
        <path fill="#6699CC" d="M69.85,45.254c-0.601,0-1.15-0.334-1.46-0.848c-4.059-6.726-9.815-8.799-9.815-8.799
		c-3.404-1.014-6.132,0.862-7.578,2.232c-0.629,0.596-1.634,0.596-2.263,0c-1.446-1.371-4.176-3.245-7.578-2.232
		c0,0-5.569,2.073-9.628,8.799c-0.31,0.514-0.859,0.848-1.46,0.848h-3.681c-1.502,0-2.254,1.815-1.192,2.878l2.104,2.104
		c2.387,2.387,5.623,3.726,8.998,3.726l0,0c3.73,0,7.256-1.653,9.689-4.481c1.233-1.434,2.65-2.625,3.876-2.488
		c1.226-0.136,2.643,1.054,3.876,2.488c2.434,2.827,5.958,4.481,9.689,4.481h0.188c3.374,0,6.611-1.341,8.998-3.726l2.104-2.104
		c1.063-1.063,0.31-2.878-1.192-2.878C73.528,45.254,69.85,45.254,69.85,45.254z"/>
        <circle fill="#666699" cx="34.28" cy="19.639" r="5.226"/>
        <circle fill="#666699" cx="65.636" cy="19.639" r="5.226"/>
</g>
</svg>
