<?xml version="1.0" encoding="utf-8"?>
<!-- Generator: Adobe Illustrator 17.0.0, SVG Export Plug-In . SVG Version: 6.00 Build 0)  -->
<!DOCTYPE svg PUBLIC "-//W3C//DTD SVG 1.1//EN" "http://www.w3.org/Graphics/SVG/1.1/DTD/svg11.dtd">
<svg version="1.1" id="Calque_1" xmlns="http://www.w3.org/2000/svg" xmlns:xlink="http://www.w3.org/1999/xlink" x="0px"
     y="0px"
     width="100px" height="100px" viewBox="0 0 100 100" enable-background="new 0 0 100 100" xml:space="preserve">
<g id="hover" display="none">
	<path id="SW_1_" display="inline" fill="none" stroke="#CC3399" stroke-width="20" stroke-miterlimit="10" d="M10,50
		c0,22.109,17.891,40,40,40"/>
    <path id="SE_1_" display="inline" fill="none" stroke="#CC3399" stroke-width="20" stroke-miterlimit="10" d="M90,50
		c0,22.109-17.891,40-40,40"/>
    <path id="NW_1_" display="inline" fill="none" stroke="#CC3399" stroke-width="20" stroke-miterlimit="10" d="M10,50
		c0-22.109,17.891-40,40-40"/>
    <path id="NE_1_" display="inline" fill="none" stroke="#CC3399" stroke-width="20" stroke-miterlimit="10" d="M90,50
		c0-22.109-17.891-40-40-40"/>
</g>
    <g id="base">
	<path id="SW" fill="none" stroke="#FFCCFF" stroke-width="20" stroke-miterlimit="10"
          d="M10,50c0,22.109,17.891,40,40,40"/>
        <g>
		<path fill="#FFFFFF" d="M19.174,62.856l-13.88,3.132l-0.712-3.155l9.37-2.118l-9.654,0.857l-0.504-2.237l8.857-3.391l-9.157,2.062
			l-0.712-3.155l13.88-3.131l1.054,4.67c-0.803,0.327-1.754,0.691-2.854,1.095l-3.415,1.309l6.668-0.633L19.174,62.856z"/>
            <path fill="#FFFFFF" d="M21.161,65.949L8.345,72.132L6.737,68.8l12.816-6.184L21.161,65.949z"/>
            <path fill="#FFFFFF" d="M21.066,66.197l1.554,2.108c1.036,1.405,1.683,2.396,1.941,2.975c0.258,0.577,0.28,1.187,0.065,1.829
			c-0.214,0.643-0.81,1.323-1.786,2.043c-0.891,0.657-1.572,0.987-2.042,0.992c-0.47,0.004-0.976-0.297-1.517-0.902
			c0.288,0.697,0.385,1.238,0.289,1.621c-0.096,0.384-0.228,0.676-0.397,0.877c-0.168,0.201-0.715,0.642-1.64,1.323l-3.021,2.227
			l-2.039-2.766l3.806-2.806c0.613-0.452,0.957-0.78,1.032-0.985c0.075-0.204-0.039-0.512-0.341-0.922l-5.165,3.807l-2.196-2.978
			L21.066,66.197z M21.302,70.62l-2.547,1.877c0.247,0.335,0.466,0.536,0.657,0.603s0.539-0.086,1.043-0.458l0.63-0.464
			c0.363-0.268,0.553-0.509,0.571-0.722S21.555,70.964,21.302,70.62z"/>
            <path fill="#FFFFFF" d="M25.803,72.664l2.013,1.676c1.342,1.117,2.207,1.926,2.596,2.425c0.389,0.499,0.556,1.086,0.501,1.761
			c-0.055,0.675-0.471,1.479-1.247,2.41c-0.708,0.852-1.291,1.335-1.746,1.451c-0.455,0.117-1.018-0.055-1.688-0.513
			c0.446,0.607,0.669,1.109,0.668,1.505c-0.001,0.396-0.06,0.711-0.176,0.946s-0.541,0.794-1.276,1.677l-2.401,2.884l-2.641-2.199
			l3.026-3.634c0.487-0.585,0.743-0.986,0.767-1.202c0.024-0.217-0.16-0.488-0.552-0.814l-4.105,4.931L16.698,83.6L25.803,72.664z
			 M27.088,76.902l-2.024,2.432c0.319,0.267,0.58,0.409,0.782,0.428c0.201,0.02,0.502-0.212,0.904-0.693l0.5-0.602
			c0.289-0.347,0.416-0.626,0.382-0.837C27.598,77.419,27.417,77.177,27.088,76.902z"/>
            <path fill="#FFFFFF" d="M35.944,89.004c-0.622,1.288-1.092,2.186-1.411,2.691c-0.319,0.507-0.745,0.904-1.278,1.193
			s-1.129,0.422-1.787,0.396c-0.658-0.024-1.349-0.211-2.071-0.56c-0.687-0.331-1.248-0.741-1.687-1.229
			c-0.438-0.487-0.715-1.036-0.831-1.646c-0.116-0.608-0.078-1.192,0.113-1.751c0.191-0.558,0.605-1.496,1.242-2.816l1.058-2.192
			c0.621-1.287,1.091-2.185,1.411-2.691c0.319-0.506,0.745-0.903,1.278-1.193c0.533-0.289,1.128-0.421,1.787-0.396
			s1.349,0.212,2.072,0.561c0.686,0.331,1.248,0.74,1.686,1.229c0.438,0.487,0.715,1.036,0.831,1.645
			c0.116,0.609,0.079,1.192-0.113,1.751s-0.605,1.497-1.242,2.816L35.944,89.004z M34.643,83.186
			c0.288-0.597,0.438-0.994,0.453-1.192c0.014-0.197-0.082-0.347-0.287-0.445c-0.174-0.084-0.34-0.081-0.498,0.009
			s-0.395,0.465-0.713,1.124l-2.887,5.985c-0.359,0.744-0.55,1.218-0.574,1.421s0.076,0.358,0.297,0.466
			c0.227,0.109,0.42,0.079,0.581-0.091s0.422-0.633,0.786-1.387L34.643,83.186z"/>
            <path fill="#FFFFFF" d="M39.259,81.373l2.565,0.53c1.709,0.354,2.854,0.659,3.432,0.916c0.578,0.258,1.002,0.696,1.271,1.318
			c0.269,0.621,0.281,1.525,0.036,2.713c-0.225,1.085-0.51,1.785-0.857,2.103c-0.347,0.317-0.924,0.432-1.731,0.342
			c0.68,0.326,1.113,0.664,1.298,1.014c0.185,0.35,0.282,0.655,0.291,0.917c0.008,0.263-0.104,0.956-0.336,2.08l-0.76,3.675
			l-3.365-0.695l0.958-4.631c0.154-0.746,0.191-1.22,0.11-1.422c-0.081-0.202-0.371-0.355-0.87-0.458L40,96.057l-3.624-0.749
			L39.259,81.373z M42.389,84.507l-0.641,3.099c0.407,0.084,0.704,0.087,0.891,0.009c0.187-0.078,0.344-0.424,0.471-1.038
			l0.158-0.766c0.092-0.442,0.073-0.748-0.057-0.918C43.082,84.722,42.808,84.593,42.389,84.507z"/>
	</g>
        <path id="SW_2_" fill="none" d="M10,50c0,22.109,17.891,40,40,40"/>
        <text transform="matrix(0.03 0.9995 -0.9995 0.03 4.4473 50.1592)"><tspan x="0" y="0" fill="#FFFFFF" font-family="'Impact'" font-size="14"> </tspan>
            <tspan x="3.915" y="1.948" fill="#FFFFFF" font-family="'Impact'" font-size="18" rotate="-10.993">M</tspan>
            <tspan x="18.027" y="-1.429" fill="#FFFFFF" font-family="'Impact'" font-size="18" rotate="-24.035">I</tspan>
            <tspan x="24.018" y="-4.007" fill="#FFFFFF" font-family="'Impact'" font-size="18" rotate="-34.675">R</tspan>
            <tspan x="33.304" y="-10.688" fill="#FFFFFF" font-family="'Impact'" font-size="18"
                   rotate="-48.498">R</tspan>
            <tspan x="40.764" y="-19.439" fill="#FFFFFF" font-family="'Impact'" font-size="18"
                   rotate="-62.525">O</tspan>
            <tspan x="45.916" y="-29.842" fill="#FFFFFF" font-family="'Impact'" font-size="18"
                   rotate="-76.595">R</tspan></text>
        <path id="SE" fill="none" stroke="#FFCCFF" stroke-width="20" stroke-miterlimit="10"
              d="M90,50c0,22.109-17.891,40-40,40"/>
        <g>
		<path fill="#FFFFFF" d="M50.642,84.619l2.14-0.24c1.381-0.155,2.322-0.197,2.823-0.125c0.501,0.071,0.895,0.238,1.182,0.5
			c0.286,0.261,0.48,0.565,0.584,0.914s0.214,1.043,0.331,2.085l0.434,3.852c0.111,0.987,0.139,1.652,0.084,1.996
			c-0.056,0.343-0.188,0.622-0.398,0.836s-0.48,0.377-0.812,0.49c-0.331,0.112-0.839,0.208-1.522,0.285l-3.607,0.405L50.642,84.619z
			 M53.713,86.18l0.814,7.234c0.412-0.047,0.656-0.157,0.732-0.334c0.077-0.176,0.074-0.631-0.009-1.364l-0.48-4.272
			c-0.057-0.498-0.108-0.816-0.155-0.953c-0.048-0.137-0.132-0.231-0.253-0.284C54.242,86.153,54.025,86.145,53.713,86.18z"/>
            <path fill="#FFFFFF" d="M63.523,81.894l2.222,7.056c0.252,0.8,0.403,1.37,0.453,1.71s0,0.722-0.149,1.144
			c-0.148,0.422-0.405,0.787-0.77,1.095c-0.363,0.309-0.83,0.552-1.399,0.731c-0.631,0.198-1.22,0.27-1.769,0.213
			c-0.548-0.057-0.994-0.215-1.339-0.475c-0.345-0.259-0.597-0.567-0.757-0.926c-0.161-0.358-0.429-1.133-0.804-2.323l-1.967-6.247
			l2.745-0.864l2.492,7.916c0.146,0.461,0.263,0.747,0.354,0.859c0.09,0.112,0.211,0.145,0.363,0.097
			c0.174-0.055,0.264-0.16,0.27-0.317c0.005-0.157-0.075-0.498-0.24-1.024l-2.45-7.778L63.523,81.894z"/>
            <path fill="#FFFFFF" d="M63.613,81.821l2.558-1.364c0.691-0.368,1.252-0.598,1.683-0.688c0.43-0.09,0.793-0.082,1.089,0.023
			c0.297,0.105,0.556,0.286,0.777,0.543c0.222,0.256,0.495,0.689,0.821,1.301l0.453,0.851c0.333,0.624,0.511,1.112,0.534,1.467
			c0.023,0.354-0.096,0.699-0.358,1.035s-0.671,0.652-1.226,0.948l-0.682,0.363l2.096,3.933l-2.539,1.354L63.613,81.821z
			 M67.043,82.138l1.325,2.485c0.074-0.034,0.138-0.065,0.19-0.094c0.233-0.124,0.364-0.268,0.394-0.431
			c0.029-0.162-0.052-0.425-0.245-0.787l-0.428-0.802c-0.178-0.334-0.346-0.523-0.504-0.568S67.373,81.962,67.043,82.138z"/>
            <path fill="#FFFFFF"
                  d="M71.323,77.109l5.316,7.078l1.399-1.052l1.33,1.771l-3.7,2.779l-6.646-8.849L71.323,77.109z"/>
            <path fill="#FFFFFF" d="M74.81,73.986l7.63,8.017l-2.084,1.984l-7.631-8.017L74.81,73.986z"/>
            <path fill="#FFFFFF" d="M83.075,71.502l-1.772,2.268l-1.516-1.186c-0.44-0.345-0.734-0.535-0.882-0.572
			c-0.146-0.037-0.285,0.027-0.414,0.192c-0.146,0.187-0.172,0.357-0.079,0.511c0.094,0.154,0.361,0.404,0.803,0.75l4.05,3.166
			c0.424,0.332,0.72,0.522,0.888,0.573c0.169,0.051,0.322-0.012,0.46-0.188c0.132-0.169,0.153-0.33,0.064-0.483
			s-0.373-0.417-0.852-0.791l-1.096-0.857l1.772-2.267l0.34,0.266c0.902,0.706,1.493,1.27,1.771,1.692
			c0.278,0.423,0.389,0.963,0.331,1.621c-0.057,0.658-0.335,1.308-0.835,1.946c-0.52,0.664-1.067,1.117-1.646,1.36
			c-0.577,0.242-1.133,0.268-1.668,0.075c-0.535-0.193-1.229-0.623-2.084-1.291l-2.547-1.992c-0.629-0.491-1.083-0.882-1.363-1.17
			c-0.28-0.289-0.482-0.653-0.606-1.095s-0.121-0.916,0.009-1.426c0.129-0.509,0.386-1.01,0.771-1.501
			c0.522-0.668,1.082-1.118,1.68-1.351s1.143-0.267,1.635-0.102s1.146,0.565,1.959,1.202L83.075,71.502z"/>
            <path fill="#FFFFFF" d="M81.549,64.066l10.586,3.626l-1.353,2.612l-1.838-0.777l-0.473,0.914l1.687,1.068l-1.367,2.642
			l-9.154-6.391L81.549,64.066z M87.168,68.692c-1.181-0.447-2.624-1.029-4.33-1.747c1.747,1.234,3.039,2.11,3.874,2.627
			L87.168,68.692z"/>
            <path fill="#FFFFFF" d="M83.662,58.112l2.098,0.711l-0.549,1.618l8.384,2.842l-0.924,2.726l-8.384-2.842l-0.546,1.612
			l-2.098-0.711L83.662,58.112z"/>
            <path fill="#FFFFFF" d="M83.554,58.281l0.824-4.728l2.183,0.381l-0.33,1.893l2.067,0.36l0.309-1.771l2.074,0.361l-0.309,1.771
			l2.397,0.418l0.362-2.081l2.183,0.381l-0.857,4.916L83.554,58.281z"/>
	</g>
        <path id="SE_2_" fill="none" d="M90,50c0,22.109-17.891,40-40,40"/>
        <text transform="matrix(0.9937 -0.1118 0.1118 0.9937 51.3086 95.6816)"><tspan x="0" y="0" fill="#FFFFFF" font-family="'Impact'" font-size="14">D</tspan>
            <tspan x="8.819" y="-0.108" fill="#FFFFFF" font-family="'Impact'" font-size="14" rotate="-11.059">U</tspan>
            <tspan x="17.325" y="-1.898" fill="#FFFFFF" font-family="'Impact'" font-size="14" rotate="-21.639">P</tspan>
            <tspan x="24.607" y="-4.929" fill="#FFFFFF" font-family="'Impact'" font-size="14" rotate="-30.491">L</tspan>
            <tspan x="29.715" y="-8.026" fill="#FFFFFF" font-family="'Impact'" font-size="14" rotate="-37.167">I</tspan>
            <tspan x="33.625" y="-10.893" fill="#FFFFFF" font-family="'Impact'" font-size="14"
                   rotate="-45.553">C</tspan>
            <tspan x="39.699" y="-17.268" fill="#FFFFFF" font-family="'Impact'" font-size="14"
                   rotate="-56.213">A</tspan>
            <tspan x="44.085" y="-24.015" fill="#FFFFFF" font-family="'Impact'" font-size="14"
                   rotate="-65.963">T</tspan>
            <tspan x="46.983" y="-30.743" fill="#FFFFFF" font-family="'Impact'" font-size="14"
                   rotate="-74.814">E</tspan></text>
        <path id="NW" fill="none" stroke="#FFCCFF" stroke-width="20" stroke-miterlimit="10"
              d="M10,50c0-22.109,17.891-40,40-40"/>
        <g>
		<path fill="#FFFFFF" d="M4.199,42.167l2.521,0.229l-0.177,1.945l10.075,0.917l-0.298,3.275L6.244,47.617l-0.176,1.937
			l-2.521-0.229L4.199,42.167z"/>
            <path fill="#FFFFFF" d="M4.609,40.34l1.443-5.291l2.442,0.666l-0.578,2.118l2.314,0.631l0.541-1.982l2.322,0.633l-0.541,1.982
			l2.683,0.732l0.636-2.329l2.442,0.666l-1.501,5.502L4.609,40.34z"/>
            <path fill="#FFFFFF" d="M11.609,23.57l11.134,6.001l-1.364,2.531l-7.519-4.048l6.974,5.059l-0.967,1.795l-7.917-2.896l7.343,3.962
			l-1.364,2.531L6.794,32.503l2.019-3.747c0.729,0.25,1.58,0.561,2.552,0.932l3.054,1.115l-4.84-3.467L11.609,23.57z"/>
            <path fill="#FFFFFF" d="M13.449,21.333l2.228-2.452c0.603-0.663,1.118-1.125,1.546-1.387c0.428-0.262,0.822-0.394,1.182-0.394
			c0.359,0,0.708,0.094,1.045,0.285s0.799,0.552,1.385,1.084l0.815,0.741c0.598,0.543,0.977,1,1.139,1.373s0.166,0.79,0.013,1.252
			c-0.153,0.463-0.471,0.96-0.955,1.492l-0.594,0.653l3.77,3.426l-2.212,2.434L13.449,21.333z M17.262,20.354l2.382,2.165
			c0.067-0.066,0.123-0.124,0.169-0.174c0.203-0.224,0.289-0.429,0.258-0.615c-0.031-0.187-0.22-0.438-0.567-0.753l-0.769-0.699
			c-0.32-0.291-0.574-0.43-0.761-0.417S17.549,20.039,17.262,20.354z"/>
            <path fill="#FFFFFF"
                  d="M22.408,12.77l6.185,8.007l1.583-1.223l1.547,2.003l-4.186,3.233l-7.732-10.01L22.408,12.77z"/>
            <path fill="#FFFFFF" d="M31.06,7.65l7.406,10.425l-2.997,1.522l-1.187-1.947l-1.049,0.533l0.854,2.116l-3.032,1.54L26.821,9.803
			L31.06,7.65z M33.189,15.69c-0.797-1.202-1.748-2.705-2.853-4.509c0.798,2.311,1.413,3.985,1.844,5.022L33.189,15.69z"/>
            <path fill="#FFFFFF" d="M39.864,4.647l0.74,2.42l-1.868,0.571l2.957,9.676l-3.146,0.961L35.591,8.6l-1.86,0.569l-0.74-2.421
			L39.864,4.647z"/>
            <path fill="#FFFFFF" d="M41.711,4.341l5.444-0.661l0.305,2.513l-2.179,0.265l0.289,2.381l2.04-0.248l0.29,2.389l-2.04,0.248
			l0.335,2.761l2.396-0.291l0.305,2.513l-5.662,0.687L41.711,4.341z"/>
	</g>
        <path id="NW_2_" fill="none" d="M10,50c0-22.109,17.891-40,40-40"/>
        <text transform="matrix(0.0907 -0.9959 0.9959 0.0907 16.1348 50.5645)"><tspan x="0" y="0" fill="#FFFFFF" font-family="'Impact'" font-size="16">T</tspan>
            <tspan x="6.282" y="-0.066" fill="#FFFFFF" font-family="'Impact'" font-size="16" rotate="10.057">E</tspan>
            <tspan x="11.569" y="0.435" fill="#FFFFFF" font-family="'Impact'" font-size="16" rotate="23.121">M</tspan>
            <tspan x="20.721" y="4.372" fill="#FFFFFF" font-family="'Impact'" font-size="16" rotate="37.062">P</tspan>
            <tspan x="26.255" y="8.537" fill="#FFFFFF" font-family="'Impact'" font-size="16" rotate="47.114">L</tspan>
            <tspan x="29.795" y="12.072" fill="#FFFFFF" font-family="'Impact'" font-size="16" rotate="57.301">A</tspan>
            <tspan x="33.602" y="17.85" fill="#FFFFFF" font-family="'Impact'" font-size="16" rotate="68.47">T</tspan>
            <tspan x="35.968" y="23.678" fill="#FFFFFF" font-family="'Impact'" font-size="16" rotate="78.556">E</tspan></text>
        <path id="NE" fill="none" stroke="#FFCCFF" stroke-width="20" stroke-miterlimit="10"
              d="M90,50c0-22.109-17.891-40-40-40"/>
        <g>
		<path fill="#FFFFFF" d="M72.914,9.09l2.05,1.384c1.367,0.923,2.257,1.6,2.669,2.033c0.413,0.432,0.625,0.968,0.638,1.607
			c0.013,0.64-0.302,1.434-0.943,2.383c-0.585,0.867-1.086,1.376-1.503,1.529c-0.417,0.153-0.962,0.045-1.635-0.323
			c0.477,0.529,0.733,0.98,0.77,1.352s0.011,0.673-0.075,0.905c-0.087,0.232-0.434,0.797-1.04,1.696l-1.984,2.938l-2.689-1.816
			l2.499-3.701c0.402-0.596,0.605-0.998,0.607-1.203s-0.197-0.443-0.596-0.712l-3.392,5.021l-2.896-1.956L72.914,9.09z
			 M74.523,12.951l-1.672,2.476c0.325,0.22,0.584,0.33,0.774,0.328c0.191-0.001,0.452-0.247,0.784-0.738l0.413-0.612
			c0.238-0.353,0.332-0.627,0.28-0.822S74.858,13.177,74.523,12.951z"/>
            <path fill="#FFFFFF" d="M83.744,17.633l-9.346,9.657l-2.512-2.43l9.346-9.657L83.744,17.633z"/>
            <path fill="#FFFFFF" d="M86.274,28.879l-2.041-2.836l0.99-0.713c0.624-0.449,0.995-0.757,1.114-0.924
			c0.118-0.167,0.104-0.352-0.041-0.554c-0.126-0.175-0.279-0.246-0.459-0.212c-0.181,0.034-0.549,0.252-1.105,0.653l-5.234,3.768
			c-0.49,0.353-0.789,0.616-0.899,0.791c-0.109,0.174-0.097,0.356,0.04,0.544c0.148,0.207,0.337,0.284,0.565,0.232
			c0.229-0.052,0.597-0.261,1.104-0.626l1.294-0.931l-0.412-0.573l1.657-1.193l2.391,3.321l-5.854,4.214l-1.282-1.782l0.592-0.825
			c-0.476,0.049-0.903-0.013-1.284-0.186c-0.38-0.173-0.714-0.46-1.002-0.86c-0.344-0.477-0.549-1.006-0.617-1.588
			c-0.067-0.583-0.009-1.104,0.178-1.566c0.186-0.461,0.446-0.854,0.783-1.178c0.336-0.324,0.879-0.756,1.629-1.296l3.24-2.333
			c1.042-0.75,1.84-1.239,2.392-1.466c0.553-0.227,1.217-0.216,1.993,0.033c0.775,0.25,1.468,0.796,2.075,1.641
			c0.599,0.831,0.924,1.643,0.978,2.437c0.053,0.794-0.096,1.443-0.445,1.947s-0.972,1.078-1.865,1.721L86.274,28.879z"/>
	</g>
        <path id="NE_2_" fill="none" d="M90,50c0-22.109-17.891-40-40-40"/>
        <text transform="matrix(0.9981 0.0616 -0.0616 0.9981 50.1479 18.2529)"><tspan x="0" y="0" font-family="'Impact'" font-size="21"> </tspan>
            <tspan x="2.943" y="-0.036" font-family="'Impact'" font-size="21" rotate="5.28"> </tspan>
            <tspan x="5.874" y="0.199" font-family="'Impact'" font-size="21" rotate="10.614"> </tspan>
            <tspan x="8.756" y="0.703" font-family="'Impact'" font-size="21" rotate="15.943"> </tspan>
            <tspan x="11.574" y="1.471" font-family="'Impact'" font-size="21" rotate="21.262"> </tspan>
            <tspan x="14.737" y="0.678" fill="#FFFFFF" font-family="'Impact'" font-size="17" rotate="30.499">R</tspan>
            <tspan x="21.575" y="4.802" fill="#FFFFFF" font-family="'Impact'" font-size="17" rotate="40.53">I</tspan>
            <tspan x="24.622" y="7.011" fill="#FFFFFF" font-family="'Impact'" font-size="17" rotate="50.719">G</tspan></text>
</g>
</svg>
