<?xml version="1.0" encoding="utf-8"?>
<!-- Generator: Adobe Illustrator 17.0.0, SVG Export Plug-In . SVG Version: 6.00 Build 0)  -->
<!DOCTYPE svg PUBLIC "-//W3C//DTD SVG 1.1//EN" "http://www.w3.org/Graphics/SVG/1.1/DTD/svg11.dtd">
<svg version="1.1" id="Calque_1" xmlns="http://www.w3.org/2000/svg" xmlns:xlink="http://www.w3.org/1999/xlink" x="0px"
     y="0px"
     width="100px" height="100px" viewBox="0 0 100 100" enable-background="new 0 0 100 100" xml:space="preserve">
<g id="base">
	<path fill="#6699CC" stroke="#FFFFFF" stroke-miterlimit="10" d="M50,20.015c-19.227,0-30.037,16.423-30.037,30.037H0
		C0,20.73,23.951,0.029,50.023,0.029L50,20.015z"/>
    <g>
		<path fill="#FFFFFF" d="M4.199,42.167l2.521,0.229l-0.177,1.945l10.075,0.917l-0.298,3.275L6.244,47.617l-0.176,1.937
			l-2.521-0.229L4.199,42.167z"/>
        <path fill="#FFFFFF" d="M4.609,40.34l1.443-5.291l2.442,0.666l-0.578,2.118l2.314,0.631l0.541-1.982l2.322,0.633l-0.541,1.982
			l2.683,0.732l0.636-2.329l2.442,0.666l-1.501,5.502L4.609,40.34z"/>
        <path fill="#FFFFFF" d="M11.609,23.57l11.134,6.001l-1.364,2.531l-7.519-4.048l6.974,5.059l-0.967,1.795l-7.917-2.896l7.343,3.962
			l-1.364,2.531L6.794,32.503l2.019-3.747c0.729,0.25,1.58,0.561,2.552,0.932l3.054,1.115l-4.84-3.467L11.609,23.57z"/>
        <path fill="#FFFFFF" d="M13.449,21.333l2.228-2.452c0.603-0.663,1.118-1.125,1.546-1.387c0.428-0.262,0.822-0.394,1.182-0.394
			c0.359,0,0.708,0.094,1.045,0.285s0.799,0.552,1.385,1.084l0.815,0.741c0.598,0.543,0.977,1,1.139,1.373s0.166,0.79,0.013,1.252
			c-0.153,0.463-0.471,0.96-0.955,1.492l-0.594,0.653l3.77,3.426l-2.212,2.434L13.449,21.333z M17.262,20.354l2.382,2.165
			c0.067-0.066,0.123-0.124,0.169-0.174c0.203-0.224,0.289-0.429,0.258-0.615c-0.031-0.187-0.22-0.438-0.567-0.753l-0.769-0.699
			c-0.32-0.291-0.574-0.43-0.761-0.417S17.549,20.039,17.262,20.354z"/>
        <path fill="#FFFFFF"
              d="M22.408,12.77l6.185,8.007l1.583-1.223l1.547,2.003l-4.186,3.233l-7.732-10.01L22.408,12.77z"/>
        <path fill="#FFFFFF" d="M31.06,7.65l7.406,10.425l-2.997,1.522l-1.187-1.947l-1.049,0.533l0.854,2.116l-3.032,1.54L26.821,9.803
			L31.06,7.65z M33.189,15.69c-0.797-1.202-1.748-2.705-2.853-4.509c0.798,2.311,1.413,3.985,1.844,5.022L33.189,15.69z"/>
        <path fill="#FFFFFF" d="M39.864,4.647l0.74,2.42l-1.868,0.571l2.957,9.676l-3.146,0.961L35.591,8.6l-1.86,0.569l-0.74-2.421
			L39.864,4.647z"/>
        <path fill="#FFFFFF" d="M41.711,4.341l5.444-0.661l0.305,2.513l-2.179,0.265l0.289,2.381l2.04-0.248l0.29,2.389l-2.04,0.248
			l0.335,2.761l2.396-0.291l0.305,2.513l-5.662,0.687L41.711,4.341z"/>
	</g>
</g>
    <g id="hover">
	<path fill="#003399" stroke="#FFFFFF" stroke-miterlimit="10" d="M50,20.015c-19.227,0-30.037,16.423-30.037,30.037H0
		C0,20.73,23.951,0.029,50.023,0.029L50,20.015z"/>
        <g>
		<path fill="#FFFFFF" d="M4.199,42.167l2.521,0.229l-0.177,1.945l10.075,0.917l-0.298,3.275L6.244,47.617l-0.176,1.937
			l-2.521-0.229L4.199,42.167z"/>
            <path fill="#FFFFFF" d="M4.609,40.34l1.443-5.291l2.442,0.666l-0.578,2.118l2.314,0.631l0.541-1.982l2.322,0.633l-0.541,1.982
			l2.683,0.732l0.636-2.329l2.442,0.666l-1.501,5.502L4.609,40.34z"/>
            <path fill="#FFFFFF" d="M11.609,23.57l11.134,6.001l-1.364,2.531l-7.519-4.048l6.974,5.059l-0.967,1.795l-7.917-2.896l7.343,3.962
			l-1.364,2.531L6.794,32.503l2.019-3.747c0.729,0.25,1.58,0.561,2.552,0.932l3.054,1.115l-4.84-3.467L11.609,23.57z"/>
            <path fill="#FFFFFF" d="M13.449,21.333l2.228-2.452c0.603-0.663,1.118-1.125,1.546-1.387c0.428-0.262,0.822-0.394,1.182-0.394
			c0.359,0,0.708,0.094,1.045,0.285s0.799,0.552,1.385,1.084l0.815,0.741c0.598,0.543,0.977,1,1.139,1.373s0.166,0.79,0.013,1.252
			c-0.153,0.463-0.471,0.96-0.955,1.492l-0.594,0.653l3.77,3.426l-2.212,2.434L13.449,21.333z M17.262,20.354l2.382,2.165
			c0.067-0.066,0.123-0.124,0.169-0.174c0.203-0.224,0.289-0.429,0.258-0.615c-0.031-0.187-0.22-0.438-0.567-0.753l-0.769-0.699
			c-0.32-0.291-0.574-0.43-0.761-0.417S17.549,20.039,17.262,20.354z"/>
            <path fill="#FFFFFF"
                  d="M22.408,12.77l6.185,8.007l1.583-1.223l1.547,2.003l-4.186,3.233l-7.732-10.01L22.408,12.77z"/>
            <path fill="#FFFFFF" d="M31.06,7.65l7.406,10.425l-2.997,1.522l-1.187-1.947l-1.049,0.533l0.854,2.116l-3.032,1.54L26.821,9.803
			L31.06,7.65z M33.189,15.69c-0.797-1.202-1.748-2.705-2.853-4.509c0.798,2.311,1.413,3.985,1.844,5.022L33.189,15.69z"/>
            <path fill="#FFFFFF" d="M39.864,4.647l0.74,2.42l-1.868,0.571l2.957,9.676l-3.146,0.961L35.591,8.6l-1.86,0.569l-0.74-2.421
			L39.864,4.647z"/>
            <path fill="#FFFFFF" d="M41.711,4.341l5.444-0.661l0.305,2.513l-2.179,0.265l0.289,2.381l2.04-0.248l0.29,2.389l-2.04,0.248
			l0.335,2.761l2.396-0.291l0.305,2.513l-5.662,0.687L41.711,4.341z"/>
	</g>
</g>
</svg>
