<?xml version="1.0" encoding="utf-8"?>
<!-- Generator: Adobe Illustrator 17.0.0, SVG Export Plug-In . SVG Version: 6.00 Build 0)  -->
<!DOCTYPE svg PUBLIC "-//W3C//DTD SVG 1.1//EN" "http://www.w3.org/Graphics/SVG/1.1/DTD/svg11.dtd">
<svg version="1.1" xmlns="http://www.w3.org/2000/svg" xmlns:xlink="http://www.w3.org/1999/xlink" x="0px" y="0px"
     width="100px"
     height="100px" viewBox="0 0 100 100" enable-background="new 0 0 100 100" xml:space="preserve">
<g id="base">
	<path fill="#6699CC" stroke="#FFFFFF" stroke-miterlimit="10" d="M19.986,50.023c0,19.227,16.423,30.037,30.037,30.037v19.963
		C20.701,100.023,0,76.072,0,50L19.986,50.023z"/>
    <g>
		<path fill="#FFFFFF" d="M19.174,62.856l-13.88,3.132l-0.712-3.155l9.37-2.118l-9.654,0.857l-0.504-2.237l8.857-3.391l-9.157,2.062
			l-0.712-3.155l13.88-3.131l1.054,4.67c-0.803,0.327-1.754,0.691-2.854,1.095l-3.415,1.309l6.668-0.633L19.174,62.856z"/>
        <path fill="#FFFFFF" d="M21.161,65.949L8.345,72.132L6.737,68.8l12.816-6.184L21.161,65.949z"/>
        <path fill="#FFFFFF" d="M21.066,66.197l1.554,2.108c1.036,1.405,1.683,2.396,1.941,2.975c0.258,0.577,0.28,1.187,0.065,1.829
			c-0.214,0.643-0.81,1.323-1.786,2.043c-0.891,0.657-1.572,0.987-2.042,0.992c-0.47,0.004-0.976-0.297-1.517-0.902
			c0.288,0.697,0.385,1.238,0.289,1.621c-0.096,0.384-0.228,0.676-0.397,0.877c-0.168,0.201-0.715,0.642-1.64,1.323l-3.021,2.227
			l-2.039-2.766l3.806-2.806c0.613-0.452,0.957-0.78,1.032-0.985c0.075-0.204-0.039-0.512-0.341-0.922l-5.165,3.807l-2.196-2.978
			L21.066,66.197z M21.302,70.62l-2.547,1.877c0.247,0.335,0.466,0.536,0.657,0.603s0.539-0.086,1.043-0.458l0.63-0.464
			c0.363-0.268,0.553-0.509,0.571-0.722S21.555,70.964,21.302,70.62z"/>
        <path fill="#FFFFFF" d="M25.803,72.664l2.013,1.676c1.342,1.117,2.207,1.926,2.596,2.425c0.389,0.499,0.556,1.086,0.501,1.761
			c-0.055,0.675-0.471,1.479-1.247,2.41c-0.708,0.852-1.291,1.335-1.746,1.451c-0.455,0.117-1.018-0.055-1.688-0.513
			c0.446,0.607,0.669,1.109,0.668,1.505c-0.001,0.396-0.06,0.711-0.176,0.946s-0.541,0.794-1.276,1.677l-2.401,2.884l-2.641-2.199
			l3.026-3.634c0.487-0.585,0.743-0.986,0.767-1.202c0.024-0.217-0.16-0.488-0.552-0.814l-4.105,4.931L16.698,83.6L25.803,72.664z
			 M27.088,76.902l-2.024,2.432c0.319,0.267,0.58,0.409,0.782,0.428c0.201,0.02,0.502-0.212,0.904-0.693l0.5-0.602
			c0.289-0.347,0.416-0.626,0.382-0.837C27.598,77.419,27.417,77.177,27.088,76.902z"/>
        <path fill="#FFFFFF" d="M35.944,89.004c-0.622,1.288-1.092,2.186-1.411,2.691c-0.319,0.507-0.745,0.904-1.278,1.193
			s-1.129,0.422-1.787,0.396c-0.658-0.024-1.349-0.211-2.071-0.56c-0.687-0.331-1.248-0.741-1.687-1.229
			c-0.438-0.487-0.715-1.036-0.831-1.646c-0.116-0.608-0.078-1.192,0.113-1.751c0.191-0.558,0.605-1.496,1.242-2.816l1.058-2.192
			c0.621-1.287,1.091-2.185,1.411-2.691c0.319-0.506,0.745-0.903,1.278-1.193c0.533-0.289,1.128-0.421,1.787-0.396
			s1.349,0.212,2.072,0.561c0.686,0.331,1.248,0.74,1.686,1.229c0.438,0.487,0.715,1.036,0.831,1.645
			c0.116,0.609,0.079,1.192-0.113,1.751s-0.605,1.497-1.242,2.816L35.944,89.004z M34.643,83.186
			c0.288-0.597,0.438-0.994,0.453-1.192c0.014-0.197-0.082-0.347-0.287-0.445c-0.174-0.084-0.34-0.081-0.498,0.009
			s-0.395,0.465-0.713,1.124l-2.887,5.985c-0.359,0.744-0.55,1.218-0.574,1.421s0.076,0.358,0.297,0.466
			c0.227,0.109,0.42,0.079,0.581-0.091s0.422-0.633,0.786-1.387L34.643,83.186z"/>
        <path fill="#FFFFFF" d="M39.259,81.373l2.565,0.53c1.709,0.354,2.854,0.659,3.432,0.916c0.578,0.258,1.002,0.696,1.271,1.318
			c0.269,0.621,0.281,1.525,0.036,2.713c-0.225,1.085-0.51,1.785-0.857,2.103c-0.347,0.317-0.924,0.432-1.731,0.342
			c0.68,0.326,1.113,0.664,1.298,1.014c0.185,0.35,0.282,0.655,0.291,0.917c0.008,0.263-0.104,0.956-0.336,2.08l-0.76,3.675
			l-3.365-0.695l0.958-4.631c0.154-0.746,0.191-1.22,0.11-1.422c-0.081-0.202-0.371-0.355-0.87-0.458L40,96.057l-3.624-0.749
			L39.259,81.373z M42.389,84.507l-0.641,3.099c0.407,0.084,0.704,0.087,0.891,0.009c0.187-0.078,0.344-0.424,0.471-1.038
			l0.158-0.766c0.092-0.442,0.073-0.748-0.057-0.918C43.082,84.722,42.808,84.593,42.389,84.507z"/>
	</g>
</g>
    <g id="hover">
	<path fill="#003399" stroke="#FFFFFF" stroke-miterlimit="10" d="M19.986,50.023c0,19.227,16.423,30.037,30.037,30.037v19.963
		C20.701,100.023,0,76.072,0,50L19.986,50.023z"/>
        <g>
		<path fill="#FFFFFF" d="M19.174,62.856l-13.88,3.132l-0.712-3.155l9.37-2.118l-9.654,0.857l-0.504-2.237l8.857-3.391l-9.157,2.062
			l-0.712-3.155l13.88-3.131l1.054,4.67c-0.803,0.327-1.754,0.691-2.854,1.095l-3.415,1.309l6.668-0.633L19.174,62.856z"/>
            <path fill="#FFFFFF" d="M21.161,65.949L8.345,72.132L6.737,68.8l12.816-6.184L21.161,65.949z"/>
            <path fill="#FFFFFF" d="M21.066,66.197l1.554,2.108c1.036,1.405,1.683,2.396,1.941,2.975c0.258,0.577,0.28,1.187,0.065,1.829
			c-0.214,0.643-0.81,1.323-1.786,2.043c-0.891,0.657-1.572,0.987-2.042,0.992c-0.47,0.004-0.976-0.297-1.517-0.902
			c0.288,0.697,0.385,1.238,0.289,1.621c-0.096,0.384-0.228,0.676-0.397,0.877c-0.168,0.201-0.715,0.642-1.64,1.323l-3.021,2.227
			l-2.039-2.766l3.806-2.806c0.613-0.452,0.957-0.78,1.032-0.985c0.075-0.204-0.039-0.512-0.341-0.922l-5.165,3.807l-2.196-2.978
			L21.066,66.197z M21.302,70.62l-2.547,1.877c0.247,0.335,0.466,0.536,0.657,0.603s0.539-0.086,1.043-0.458l0.63-0.464
			c0.363-0.268,0.553-0.509,0.571-0.722S21.555,70.964,21.302,70.62z"/>
            <path fill="#FFFFFF" d="M25.803,72.664l2.013,1.676c1.342,1.117,2.207,1.926,2.596,2.425c0.389,0.499,0.556,1.086,0.501,1.761
			c-0.055,0.675-0.471,1.479-1.247,2.41c-0.708,0.852-1.291,1.335-1.746,1.451c-0.455,0.117-1.018-0.055-1.688-0.513
			c0.446,0.607,0.669,1.109,0.668,1.505c-0.001,0.396-0.06,0.711-0.176,0.946s-0.541,0.794-1.276,1.677l-2.401,2.884l-2.641-2.199
			l3.026-3.634c0.487-0.585,0.743-0.986,0.767-1.202c0.024-0.217-0.16-0.488-0.552-0.814l-4.105,4.931L16.698,83.6L25.803,72.664z
			 M27.088,76.902l-2.024,2.432c0.319,0.267,0.58,0.409,0.782,0.428c0.201,0.02,0.502-0.212,0.904-0.693l0.5-0.602
			c0.289-0.347,0.416-0.626,0.382-0.837C27.598,77.419,27.417,77.177,27.088,76.902z"/>
            <path fill="#FFFFFF" d="M35.944,89.004c-0.622,1.288-1.092,2.186-1.411,2.691c-0.319,0.507-0.745,0.904-1.278,1.193
			s-1.129,0.422-1.787,0.396c-0.658-0.024-1.349-0.211-2.071-0.56c-0.687-0.331-1.248-0.741-1.687-1.229
			c-0.438-0.487-0.715-1.036-0.831-1.646c-0.116-0.608-0.078-1.192,0.113-1.751c0.191-0.558,0.605-1.496,1.242-2.816l1.058-2.192
			c0.621-1.287,1.091-2.185,1.411-2.691c0.319-0.506,0.745-0.903,1.278-1.193c0.533-0.289,1.128-0.421,1.787-0.396
			s1.349,0.212,2.072,0.561c0.686,0.331,1.248,0.74,1.686,1.229c0.438,0.487,0.715,1.036,0.831,1.645
			c0.116,0.609,0.079,1.192-0.113,1.751s-0.605,1.497-1.242,2.816L35.944,89.004z M34.643,83.186
			c0.288-0.597,0.438-0.994,0.453-1.192c0.014-0.197-0.082-0.347-0.287-0.445c-0.174-0.084-0.34-0.081-0.498,0.009
			s-0.395,0.465-0.713,1.124l-2.887,5.985c-0.359,0.744-0.55,1.218-0.574,1.421s0.076,0.358,0.297,0.466
			c0.227,0.109,0.42,0.079,0.581-0.091s0.422-0.633,0.786-1.387L34.643,83.186z"/>
            <path fill="#FFFFFF" d="M39.259,81.373l2.565,0.53c1.709,0.354,2.854,0.659,3.432,0.916c0.578,0.258,1.002,0.696,1.271,1.318
			c0.269,0.621,0.281,1.525,0.036,2.713c-0.225,1.085-0.51,1.785-0.857,2.103c-0.347,0.317-0.924,0.432-1.731,0.342
			c0.68,0.326,1.113,0.664,1.298,1.014c0.185,0.35,0.282,0.655,0.291,0.917c0.008,0.263-0.104,0.956-0.336,2.08l-0.76,3.675
			l-3.365-0.695l0.958-4.631c0.154-0.746,0.191-1.22,0.11-1.422c-0.081-0.202-0.371-0.355-0.87-0.458L40,96.057l-3.624-0.749
			L39.259,81.373z M42.389,84.507l-0.641,3.099c0.407,0.084,0.704,0.087,0.891,0.009c0.187-0.078,0.344-0.424,0.471-1.038
			l0.158-0.766c0.092-0.442,0.073-0.748-0.057-0.918C43.082,84.722,42.808,84.593,42.389,84.507z"/>
	</g>
</g>
</svg>
