<?xml version="1.0" encoding="utf-8"?>
<!-- Generator: Adobe Illustrator 17.0.0, SVG Export Plug-In . SVG Version: 6.00 Build 0)  -->
<!DOCTYPE svg PUBLIC "-//W3C//DTD SVG 1.1//EN" "http://www.w3.org/Graphics/SVG/1.1/DTD/svg11.dtd">
<svg version="1.1" id="Calque_1" xmlns="http://www.w3.org/2000/svg" xmlns:xlink="http://www.w3.org/1999/xlink" x="0px"
     y="0px"
     width="100px" height="100px" viewBox="0 0 100 100" enable-background="new 0 0 100 100" xml:space="preserve">
<g id="base">
	<path fill="#6699CC" stroke="#FFFFFF" stroke-miterlimit="10" d="M50.023,80.037C69.25,80.037,80.06,63.615,80.06,50h19.963
		c0,29.322-23.951,50.023-50.023,50.023L50.023,80.037z"/>
    <g>
		<path fill="#FFFFFF" d="M50.642,84.619l2.14-0.24c1.381-0.155,2.322-0.197,2.823-0.125c0.501,0.071,0.895,0.238,1.182,0.5
			c0.286,0.261,0.48,0.565,0.584,0.914s0.214,1.043,0.331,2.085l0.434,3.852c0.111,0.987,0.139,1.652,0.084,1.996
			c-0.056,0.343-0.188,0.622-0.398,0.836s-0.48,0.377-0.812,0.49c-0.331,0.112-0.839,0.208-1.522,0.285l-3.607,0.405L50.642,84.619z
			 M53.713,86.18l0.814,7.234c0.412-0.047,0.656-0.157,0.732-0.334c0.077-0.176,0.074-0.631-0.009-1.364l-0.48-4.272
			c-0.057-0.498-0.108-0.816-0.155-0.953c-0.048-0.137-0.132-0.231-0.253-0.284C54.242,86.153,54.025,86.145,53.713,86.18z"/>
        <path fill="#FFFFFF" d="M63.523,81.894l2.222,7.056c0.252,0.8,0.403,1.37,0.453,1.71s0,0.722-0.149,1.144
			c-0.148,0.422-0.405,0.787-0.77,1.095c-0.363,0.309-0.83,0.552-1.399,0.731c-0.631,0.198-1.22,0.27-1.769,0.213
			c-0.548-0.057-0.994-0.215-1.339-0.475c-0.345-0.259-0.597-0.567-0.757-0.926c-0.161-0.358-0.429-1.133-0.804-2.323l-1.967-6.247
			l2.745-0.864l2.492,7.916c0.146,0.461,0.263,0.747,0.354,0.859c0.09,0.112,0.211,0.145,0.363,0.097
			c0.174-0.055,0.264-0.16,0.27-0.317c0.005-0.157-0.075-0.498-0.24-1.024l-2.45-7.778L63.523,81.894z"/>
        <path fill="#FFFFFF" d="M63.613,81.821l2.558-1.364c0.691-0.368,1.252-0.598,1.683-0.688c0.43-0.09,0.793-0.082,1.089,0.023
			c0.297,0.105,0.556,0.286,0.777,0.543c0.222,0.256,0.495,0.689,0.821,1.301l0.453,0.851c0.333,0.624,0.511,1.112,0.534,1.467
			c0.023,0.354-0.096,0.699-0.358,1.035s-0.671,0.652-1.226,0.948l-0.682,0.363l2.096,3.933l-2.539,1.354L63.613,81.821z
			 M67.043,82.138l1.325,2.485c0.074-0.034,0.138-0.065,0.19-0.094c0.233-0.124,0.364-0.268,0.394-0.431
			c0.029-0.162-0.052-0.425-0.245-0.787l-0.428-0.802c-0.178-0.334-0.346-0.523-0.504-0.568S67.373,81.962,67.043,82.138z"/>
        <path fill="#FFFFFF"
              d="M71.323,77.109l5.316,7.078l1.399-1.052l1.33,1.771l-3.7,2.779l-6.646-8.849L71.323,77.109z"/>
        <path fill="#FFFFFF" d="M74.81,73.986l7.63,8.017l-2.084,1.984l-7.631-8.017L74.81,73.986z"/>
        <path fill="#FFFFFF" d="M83.075,71.502l-1.772,2.268l-1.516-1.186c-0.44-0.345-0.734-0.535-0.882-0.572
			c-0.146-0.037-0.285,0.027-0.414,0.192c-0.146,0.187-0.172,0.357-0.079,0.511c0.094,0.154,0.361,0.404,0.803,0.75l4.05,3.166
			c0.424,0.332,0.72,0.522,0.888,0.573c0.169,0.051,0.322-0.012,0.46-0.188c0.132-0.169,0.153-0.33,0.064-0.483
			s-0.373-0.417-0.852-0.791l-1.096-0.857l1.772-2.267l0.34,0.266c0.902,0.706,1.493,1.27,1.771,1.692
			c0.278,0.423,0.389,0.963,0.331,1.621c-0.057,0.658-0.335,1.308-0.835,1.946c-0.52,0.664-1.067,1.117-1.646,1.36
			c-0.577,0.242-1.133,0.268-1.668,0.075c-0.535-0.193-1.229-0.623-2.084-1.291l-2.547-1.992c-0.629-0.491-1.083-0.882-1.363-1.17
			c-0.28-0.289-0.482-0.653-0.606-1.095s-0.121-0.916,0.009-1.426c0.129-0.509,0.386-1.01,0.771-1.501
			c0.522-0.668,1.082-1.118,1.68-1.351s1.143-0.267,1.635-0.102s1.146,0.565,1.959,1.202L83.075,71.502z"/>
        <path fill="#FFFFFF" d="M81.549,64.066l10.586,3.626l-1.353,2.612l-1.838-0.777l-0.473,0.914l1.687,1.068l-1.367,2.642
			l-9.154-6.391L81.549,64.066z M87.168,68.692c-1.181-0.447-2.624-1.029-4.33-1.747c1.747,1.234,3.039,2.11,3.874,2.627
			L87.168,68.692z"/>
        <path fill="#FFFFFF" d="M83.662,58.112l2.098,0.711l-0.549,1.618l8.384,2.842l-0.924,2.726l-8.384-2.842l-0.546,1.612
			l-2.098-0.711L83.662,58.112z"/>
        <path fill="#FFFFFF" d="M83.554,58.281l0.824-4.728l2.183,0.381l-0.33,1.893l2.067,0.36l0.309-1.771l2.074,0.361l-0.309,1.771
			l2.397,0.418l0.362-2.081l2.183,0.381l-0.857,4.916L83.554,58.281z"/>
	</g>
</g>
    <g id="hover">
	<path fill="#003399" stroke="#FFFFFF" stroke-miterlimit="10" d="M50.023,80.037C69.25,80.037,80.06,63.615,80.06,50h19.963
		c0,29.322-23.951,50.023-50.023,50.023L50.023,80.037z"/>
        <g>
		<path fill="#FFFFFF" d="M50.642,84.619l2.14-0.24c1.381-0.155,2.322-0.197,2.823-0.125c0.501,0.071,0.895,0.238,1.182,0.5
			c0.286,0.261,0.48,0.565,0.584,0.914s0.214,1.043,0.331,2.085l0.434,3.852c0.111,0.987,0.139,1.652,0.084,1.996
			c-0.056,0.343-0.188,0.622-0.398,0.836s-0.48,0.377-0.812,0.49c-0.331,0.112-0.839,0.208-1.522,0.285l-3.607,0.405L50.642,84.619z
			 M53.713,86.18l0.814,7.234c0.412-0.047,0.656-0.157,0.732-0.334c0.077-0.176,0.074-0.631-0.009-1.364l-0.48-4.272
			c-0.057-0.498-0.108-0.816-0.155-0.953c-0.048-0.137-0.132-0.231-0.253-0.284C54.242,86.153,54.025,86.145,53.713,86.18z"/>
            <path fill="#FFFFFF" d="M63.523,81.894l2.222,7.056c0.252,0.8,0.403,1.37,0.453,1.71s0,0.722-0.149,1.144
			c-0.148,0.422-0.405,0.787-0.77,1.095c-0.363,0.309-0.83,0.552-1.399,0.731c-0.631,0.198-1.22,0.27-1.769,0.213
			c-0.548-0.057-0.994-0.215-1.339-0.475c-0.345-0.259-0.597-0.567-0.757-0.926c-0.161-0.358-0.429-1.133-0.804-2.323l-1.967-6.247
			l2.745-0.864l2.492,7.916c0.146,0.461,0.263,0.747,0.354,0.859c0.09,0.112,0.211,0.145,0.363,0.097
			c0.174-0.055,0.264-0.16,0.27-0.317c0.005-0.157-0.075-0.498-0.24-1.024l-2.45-7.778L63.523,81.894z"/>
            <path fill="#FFFFFF" d="M63.613,81.821l2.558-1.364c0.691-0.368,1.252-0.598,1.683-0.688c0.43-0.09,0.793-0.082,1.089,0.023
			c0.297,0.105,0.556,0.286,0.777,0.543c0.222,0.256,0.495,0.689,0.821,1.301l0.453,0.851c0.333,0.624,0.511,1.112,0.534,1.467
			c0.023,0.354-0.096,0.699-0.358,1.035s-0.671,0.652-1.226,0.948l-0.682,0.363l2.096,3.933l-2.539,1.354L63.613,81.821z
			 M67.043,82.138l1.325,2.485c0.074-0.034,0.138-0.065,0.19-0.094c0.233-0.124,0.364-0.268,0.394-0.431
			c0.029-0.162-0.052-0.425-0.245-0.787l-0.428-0.802c-0.178-0.334-0.346-0.523-0.504-0.568S67.373,81.962,67.043,82.138z"/>
            <path fill="#FFFFFF"
                  d="M71.323,77.109l5.316,7.078l1.399-1.052l1.33,1.771l-3.7,2.779l-6.646-8.849L71.323,77.109z"/>
            <path fill="#FFFFFF" d="M74.81,73.986l7.63,8.017l-2.084,1.984l-7.631-8.017L74.81,73.986z"/>
            <path fill="#FFFFFF" d="M83.075,71.502l-1.772,2.268l-1.516-1.186c-0.44-0.345-0.734-0.535-0.882-0.572
			c-0.146-0.037-0.285,0.027-0.414,0.192c-0.146,0.187-0.172,0.357-0.079,0.511c0.094,0.154,0.361,0.404,0.803,0.75l4.05,3.166
			c0.424,0.332,0.72,0.522,0.888,0.573c0.169,0.051,0.322-0.012,0.46-0.188c0.132-0.169,0.153-0.33,0.064-0.483
			s-0.373-0.417-0.852-0.791l-1.096-0.857l1.772-2.267l0.34,0.266c0.902,0.706,1.493,1.27,1.771,1.692
			c0.278,0.423,0.389,0.963,0.331,1.621c-0.057,0.658-0.335,1.308-0.835,1.946c-0.52,0.664-1.067,1.117-1.646,1.36
			c-0.577,0.242-1.133,0.268-1.668,0.075c-0.535-0.193-1.229-0.623-2.084-1.291l-2.547-1.992c-0.629-0.491-1.083-0.882-1.363-1.17
			c-0.28-0.289-0.482-0.653-0.606-1.095s-0.121-0.916,0.009-1.426c0.129-0.509,0.386-1.01,0.771-1.501
			c0.522-0.668,1.082-1.118,1.68-1.351s1.143-0.267,1.635-0.102s1.146,0.565,1.959,1.202L83.075,71.502z"/>
            <path fill="#FFFFFF" d="M81.549,64.066l10.586,3.626l-1.353,2.612l-1.838-0.777l-0.473,0.914l1.687,1.068l-1.367,2.642
			l-9.154-6.391L81.549,64.066z M87.168,68.692c-1.181-0.447-2.624-1.029-4.33-1.747c1.747,1.234,3.039,2.11,3.874,2.627
			L87.168,68.692z"/>
            <path fill="#FFFFFF" d="M83.662,58.112l2.098,0.711l-0.549,1.618l8.384,2.842l-0.924,2.726l-8.384-2.842l-0.546,1.612
			l-2.098-0.711L83.662,58.112z"/>
            <path fill="#FFFFFF" d="M83.554,58.281l0.824-4.728l2.183,0.381l-0.33,1.893l2.067,0.36l0.309-1.771l2.074,0.361l-0.309,1.771
			l2.397,0.418l0.362-2.081l2.183,0.381l-0.857,4.916L83.554,58.281z"/>
	</g>
</g>
</svg>
