<?xml version="1.0" encoding="utf-8"?>
<!-- Generator: Adobe Illustrator 17.0.0, SVG Export Plug-In . SVG Version: 6.00 Build 0)  -->
<!DOCTYPE svg PUBLIC "-//W3C//DTD SVG 1.1//EN" "http://www.w3.org/Graphics/SVG/1.1/DTD/svg11.dtd">
<svg version="1.1" id="Calque_1" xmlns="http://www.w3.org/2000/svg" xmlns:xlink="http://www.w3.org/1999/xlink" x="0px"
     y="0px"
     width="100px" height="100px" viewBox="0 0 100 100" enable-background="new 0 0 100 100" xml:space="preserve">
<g id="base">
	<path fill="#6699CC" stroke="#FFFFFF" stroke-miterlimit="10" d="M50.023,20.015c19.227,0,30.037,16.423,30.037,30.037h19.963
		C100.023,20.73,76.072,0.029,50,0.029L50.023,20.015z"/>
    <g>
		<path fill="#FFFFFF" d="M72.914,9.09l2.05,1.384c1.367,0.923,2.257,1.6,2.669,2.033c0.413,0.432,0.625,0.968,0.638,1.607
			c0.013,0.64-0.302,1.434-0.943,2.383c-0.585,0.867-1.086,1.376-1.503,1.529c-0.417,0.153-0.962,0.045-1.635-0.323
			c0.477,0.529,0.733,0.98,0.77,1.352s0.011,0.673-0.075,0.905c-0.087,0.232-0.434,0.797-1.04,1.696l-1.984,2.938l-2.689-1.816
			l2.499-3.701c0.402-0.596,0.605-0.998,0.607-1.203s-0.197-0.443-0.596-0.712l-3.392,5.021l-2.896-1.956L72.914,9.09z
			 M74.523,12.951l-1.672,2.476c0.325,0.22,0.584,0.33,0.774,0.328c0.191-0.001,0.452-0.247,0.784-0.738l0.413-0.612
			c0.238-0.353,0.332-0.627,0.28-0.822S74.858,13.177,74.523,12.951z"/>
        <path fill="#FFFFFF" d="M83.744,17.633l-9.346,9.657l-2.512-2.43l9.346-9.657L83.744,17.633z"/>
        <path fill="#FFFFFF" d="M86.274,28.879l-2.041-2.836l0.99-0.713c0.624-0.449,0.995-0.757,1.114-0.924
			c0.118-0.167,0.104-0.352-0.041-0.554c-0.126-0.175-0.279-0.246-0.459-0.212c-0.181,0.034-0.549,0.252-1.105,0.653l-5.234,3.768
			c-0.49,0.353-0.789,0.616-0.899,0.791c-0.109,0.174-0.097,0.356,0.04,0.544c0.148,0.207,0.337,0.284,0.565,0.232
			c0.229-0.052,0.597-0.261,1.104-0.626l1.294-0.931l-0.412-0.573l1.657-1.193l2.391,3.321l-5.854,4.214l-1.282-1.782l0.592-0.825
			c-0.476,0.049-0.903-0.013-1.284-0.186c-0.38-0.173-0.714-0.46-1.002-0.86c-0.344-0.477-0.549-1.006-0.617-1.588
			c-0.067-0.583-0.009-1.104,0.178-1.566c0.186-0.461,0.446-0.854,0.783-1.178c0.336-0.324,0.879-0.756,1.629-1.296l3.24-2.333
			c1.042-0.75,1.84-1.239,2.392-1.466c0.553-0.227,1.217-0.216,1.993,0.033c0.775,0.25,1.468,0.796,2.075,1.641
			c0.599,0.831,0.924,1.643,0.978,2.437c0.053,0.794-0.096,1.443-0.445,1.947s-0.972,1.078-1.865,1.721L86.274,28.879z"/>
	</g>
</g>
    <g id="hover">
	<path fill="#003399" stroke="#F2F2F2" stroke-miterlimit="10" d="M50.023,20.015c19.227,0,30.037,16.423,30.037,30.037h19.963
		C100.023,20.73,76.072,0.029,50,0.029L50.023,20.015z"/>
        <g>
		<path fill="#FFFFFF" d="M72.914,9.09l2.05,1.384c1.367,0.923,2.257,1.6,2.669,2.033c0.413,0.432,0.625,0.968,0.638,1.607
			c0.013,0.64-0.302,1.434-0.943,2.383c-0.585,0.867-1.086,1.376-1.503,1.529c-0.417,0.153-0.962,0.045-1.635-0.323
			c0.477,0.529,0.733,0.98,0.77,1.352s0.011,0.673-0.075,0.905c-0.087,0.232-0.434,0.797-1.04,1.696l-1.984,2.938l-2.689-1.816
			l2.499-3.701c0.402-0.596,0.605-0.998,0.607-1.203s-0.197-0.443-0.596-0.712l-3.392,5.021l-2.896-1.956L72.914,9.09z
			 M74.523,12.951l-1.672,2.476c0.325,0.22,0.584,0.33,0.774,0.328c0.191-0.001,0.452-0.247,0.784-0.738l0.413-0.612
			c0.238-0.353,0.332-0.627,0.28-0.822S74.858,13.177,74.523,12.951z"/>
            <path fill="#FFFFFF" d="M83.744,17.633l-9.346,9.657l-2.512-2.43l9.346-9.657L83.744,17.633z"/>
            <path fill="#FFFFFF" d="M86.274,28.879l-2.041-2.836l0.99-0.713c0.624-0.449,0.995-0.757,1.114-0.924
			c0.118-0.167,0.104-0.352-0.041-0.554c-0.126-0.175-0.279-0.246-0.459-0.212c-0.181,0.034-0.549,0.252-1.105,0.653l-5.234,3.768
			c-0.49,0.353-0.789,0.616-0.899,0.791c-0.109,0.174-0.097,0.356,0.04,0.544c0.148,0.207,0.337,0.284,0.565,0.232
			c0.229-0.052,0.597-0.261,1.104-0.626l1.294-0.931l-0.412-0.573l1.657-1.193l2.391,3.321l-5.854,4.214l-1.282-1.782l0.592-0.825
			c-0.476,0.049-0.903-0.013-1.284-0.186c-0.38-0.173-0.714-0.46-1.002-0.86c-0.344-0.477-0.549-1.006-0.617-1.588
			c-0.067-0.583-0.009-1.104,0.178-1.566c0.186-0.461,0.446-0.854,0.783-1.178c0.336-0.324,0.879-0.756,1.629-1.296l3.24-2.333
			c1.042-0.75,1.84-1.239,2.392-1.466c0.553-0.227,1.217-0.216,1.993,0.033c0.775,0.25,1.468,0.796,2.075,1.641
			c0.599,0.831,0.924,1.643,0.978,2.437c0.053,0.794-0.096,1.443-0.445,1.947s-0.972,1.078-1.865,1.721L86.274,28.879z"/>
	</g>
</g>
</svg>
