<?xml version="1.0" encoding="utf-8"?>
<!-- Generator: Adobe Illustrator 17.0.0, SVG Export Plug-In . SVG Version: 6.00 Build 0)  -->
<!DOCTYPE svg PUBLIC "-//W3C//DTD SVG 1.1//EN" "http://www.w3.org/Graphics/SVG/1.1/DTD/svg11.dtd">
<svg version="1.1" id="Calque_2" xmlns="http://www.w3.org/2000/svg" xmlns:xlink="http://www.w3.org/1999/xlink" x="0px"
     y="0px"
     width="100px" height="100px" viewBox="0 0 100 100" enable-background="new 0 0 100 100" xml:space="preserve">
<path fill="#FFFFFF" d="M20.568,18.84c0.052-0.578,0.524-1.027,1.103-1.05l4.336-0.175V16.2c0-2.825,1.112-3.855,3.601-3.855h6.379
	c0.558,0,0.978,0.085,1.299,0.237v7.041c0,0.484-0.394,0.878-0.878,0.878h-1.19c-0.383,0-0.941-0.12-1.358-1.164l-1.415-3.616
	c-0.156-0.397-0.603-0.593-1-0.438c-0.397,0.155-0.593,0.603-0.438,1l1.417,3.62c0.744,1.863,2.07,2.14,2.794,2.14h1.19
	c1.335,0,2.422-1.086,2.422-2.422v-5.118l2.874,4.324c0.053,0.056,0.099,0.132,0.158,0.217c1.508,2.14,5.59,2.296,7.007,2.262
	h18.756c8.651-1.323,9.836-7.005,9.894-7.314c0.181-1.07,1.188-1.794,2.266-1.623c1.08,0.173,1.815,1.19,1.641,2.269
	c-0.048,0.297-0.538,2.98-3.02,5.653c-1.564,1.685-4.175,3.595-8.381,4.582l0.026,16.082c0.351-0.205,0.757-0.326,1.194-0.326
	c1.307,0,2.368,1.06,2.368,2.368v10.08c0,1.308-1.061,2.368-2.368,2.368c-1.308,0-2.369-1.06-2.369-2.368v-6.332
	c-0.038,0.016-0.072,0.038-0.111,0.051c-0.222,0.081-0.451,0.121-0.678,0.121c-0.565,0-1.115-0.244-1.495-0.691l-5.219-7.001
	c-0.165-0.232-0.445-0.355-0.729-0.319l-15.883,1.919v12.253c0,1.308-1.06,2.368-2.368,2.368c-1.307,0-2.368-1.06-2.368-2.368
	V41.412l-3.601,0.447v11.217c0,1.308-1.06,2.368-2.368,2.368s-2.368-1.06-2.368-2.368c0,0,0.032-21.491,0.031-21.502l-0.411-3.389
	c-0.789-1.728-2.571-2.604-5.301-2.604c-1.635,0-2.949-0.532-3.908-1.58C20.302,22.034,20.556,18.969,20.568,18.84z"/>
    <path fill="#4A83FF" d="M60.646,40.498l5.3,7.475v5.105c0,1.308-1.06,2.368-2.368,2.368c-1.308,0-2.368-1.06-2.368-2.368v-6.479
	c-0.113,0.072-0.23,0.139-0.358,0.188c-0.23,0.088-0.468,0.131-0.705,0.131c-0.544,0-1.077-0.226-1.458-0.648l-4.468-4.945
	L60.646,40.498z"/>
</svg>
